<svg width="189" height="56" viewBox="0 0 189 56" fill="none" xmlns="http://www.w3.org/2000/svg">
<path d="M6.21 49.0772C8.101 49.885 10.0424 49.9888 12.0998 49.9898C19.2726 49.9932 26.4454 49.9932 33.6182 49.9898C34.5421 49.9888 35.3591 49.9199 36.2255 49.7986C38.5187 49.4773 40.4371 48.4636 41.9807 46.7576C43.1263 45.4915 43.8525 44.0945 44.1595 42.5666C44.3842 41.4519 44.4969 40.1676 44.4976 38.7137C44.501 31.595 44.501 24.4764 44.4976 17.3577C44.4966 16.0638 44.4524 15.0248 44.253 13.8954C43.5377 9.8441 40.396 6.80822 36.3283 6.21215C35.4095 6.07786 34.7072 6.01037 34.2215 6.00968C26.6999 6.00694 19.1788 6.00694 11.6579 6.00968C10.5038 6.01071 9.55727 6.07854 8.50489 6.25017C4.40019 6.92127 1.3376 10.0455 0.712744 14.1523C0.580511 15.0197 0.514051 15.773 0.513366 16.4122C0.511996 23.9488 0.507542 31.4854 0.500005 39.022C0.49932 39.875 0.564065 40.7654 0.694242 41.693C1.15158 44.955 3.16179 47.7761 6.21 49.0772Z" stroke="#EB8C8D" stroke-width="0.205543"/>
<path d="M24.0635 14.9005C24.1776 14.4966 24.415 14.2715 24.677 13.9643C24.9093 13.6919 24.9042 13.3517 24.6061 13.1277C23.3523 12.1884 21.4171 12.1524 20.1962 13.1801C19.8745 13.4514 19.9639 13.768 20.2373 14.0526C20.4805 14.3055 20.67 14.5966 20.8056 14.9262C20.8084 14.9324 20.8096 14.9392 20.8092 14.9459C20.8089 14.9527 20.8069 14.9593 20.8036 14.9653C20.8002 14.9712 20.7955 14.9764 20.7898 14.9803C20.7841 14.9842 20.7775 14.9868 20.7707 14.9879C14.6887 15.7864 9.9365 20.2539 8.68885 26.2465C8.55833 26.8734 8.48639 27.5229 9.09891 27.8323C9.28733 27.9268 9.65045 27.9741 10.1883 27.9741C18.4772 27.9727 26.7664 27.9724 35.056 27.9731C35.3821 27.9731 35.6102 27.9481 35.7404 27.898C36.2933 27.6843 36.542 27.1139 36.4362 26.5343C35.2923 20.295 30.3891 15.7484 24.1026 14.9591C24.0669 14.955 24.0539 14.9354 24.0635 14.9005Z" stroke="#EB8C8D" stroke-width="0.205543"/>
<path d="M14.0905 32.9698C11.7638 29.6276 7.01471 32.8588 9.139 36.1968C15.3639 45.9765 29.5772 46.0824 35.7815 36.2194C36.0528 35.7871 36.2313 35.4308 36.317 35.1506C36.7003 33.8916 36.0898 32.4333 34.9912 31.7992C33.8135 31.1199 32.3736 31.2679 31.3963 32.2308C31.2551 32.3692 31.0307 32.6765 30.7231 33.1527C30.0777 34.1523 29.273 35.0111 28.309 35.7292C28.1329 35.8607 27.9582 35.9943 27.7849 36.13C25.6226 37.8298 22.8919 38.3714 20.2404 37.6798C18.7975 37.3036 17.5642 36.4434 16.517 35.6624C15.5345 34.9286 14.8182 34.0139 14.0905 32.9698Z" stroke="#EB8C8D" stroke-width="0.205543"/>
<path d="M33.2626 23.1099C31.7015 19.477 28.6101 16.9498 24.7439 16.0064C24.3112 15.9005 24.192 16.3887 24.6051 16.5922C28.1703 18.3496 31.573 21.5046 31.9995 25.6988C32.0489 26.1808 32.1629 26.488 32.6809 26.5107C33.4065 26.5425 34.1002 26.3031 33.9676 25.4295C33.8614 24.7286 33.6264 23.9554 33.2626 23.1099Z" stroke="#EB8C8D" stroke-width="0.205543"/>
<path d="M6.21 49.0772C3.16179 47.7761 1.15158 44.955 0.694242 41.693C0.564065 40.7654 0.49932 39.875 0.500005 39.022C0.507542 31.4854 0.511996 23.9488 0.513366 16.4122C0.514051 15.773 0.580511 15.0197 0.712744 14.1523C1.3376 10.0455 4.40019 6.92127 8.50489 6.25017C9.55727 6.07854 10.5038 6.01071 11.6579 6.00968C19.1788 6.00694 26.6999 6.00694 34.2215 6.00968C34.7072 6.01037 35.4095 6.07786 36.3283 6.21215C40.396 6.80822 43.5377 9.8441 44.253 13.8954C44.4524 15.0248 44.4966 16.0638 44.4976 17.3577C44.501 24.4764 44.501 31.595 44.4976 38.7137C44.4969 40.1676 44.3842 41.4519 44.1595 42.5666C43.8525 44.0945 43.1263 45.4915 41.9807 46.7576C40.4371 48.4636 38.5187 49.4773 36.2255 49.7986C35.3591 49.9199 34.5421 49.9888 33.6182 49.9898C26.4454 49.9932 19.2726 49.9932 12.0998 49.9898C10.0424 49.9888 8.101 49.885 6.21 49.0772ZM24.0635 14.9005C24.1776 14.4966 24.415 14.2715 24.677 13.9642C24.9093 13.6919 24.9042 13.3517 24.6061 13.1277C23.3523 12.1883 21.4171 12.1523 20.1962 13.1801C19.8745 13.4514 19.9639 13.7679 20.2373 14.0526C20.4805 14.3054 20.67 14.5966 20.8056 14.9262C20.8084 14.9324 20.8096 14.9391 20.8092 14.9459C20.8089 14.9527 20.8069 14.9593 20.8036 14.9652C20.8002 14.9712 20.7955 14.9763 20.7898 14.9803C20.7841 14.9842 20.7775 14.9868 20.7707 14.9878C14.6887 15.7864 9.9365 20.2538 8.68885 26.2465C8.55833 26.8734 8.48639 27.5229 9.09891 27.8322C9.28732 27.9268 9.65045 27.9741 10.1883 27.9741C18.4772 27.9727 26.7664 27.9723 35.056 27.973C35.3821 27.973 35.6102 27.948 35.7404 27.898C36.2933 27.6842 36.542 27.1139 36.4362 26.5342C35.2923 20.2949 30.3891 15.7483 24.1025 14.959C24.0669 14.9549 24.0539 14.9354 24.0635 14.9005ZM14.0905 32.9698C11.7638 29.6276 7.0147 32.8588 9.13899 36.1968C15.3639 45.9766 29.5772 46.0824 35.7815 36.2194C36.0528 35.7871 36.2313 35.4308 36.317 35.1506C36.7003 33.8916 36.0898 32.4333 34.9912 31.7992C33.8134 31.1199 32.3736 31.2679 31.3963 32.2309C31.2551 32.3693 31.0307 32.6765 30.7231 33.1527C30.0777 34.1523 29.273 35.0112 28.309 35.7292C28.1329 35.8607 27.9582 35.9944 27.7849 36.13C25.6225 37.8299 22.8919 38.3715 20.2404 37.6798C18.7975 37.3037 17.5642 36.4435 16.517 35.6624C15.5345 34.9286 14.8182 34.0139 14.0905 32.9698Z" fill="#F03328"/>
<path d="M24.1026 14.9591C30.3891 15.7484 35.2923 20.295 36.4362 26.5343C36.542 27.1139 36.2933 27.6843 35.7404 27.898C35.6102 27.9481 35.3821 27.9731 35.056 27.9731C26.7664 27.9724 18.4772 27.9727 10.1883 27.9741C9.65045 27.9741 9.28733 27.9268 9.09891 27.8323C8.48639 27.5229 8.55833 26.8734 8.68885 26.2465C9.9365 20.2539 14.6887 15.7864 20.7707 14.9879C20.7775 14.9868 20.7841 14.9842 20.7898 14.9803C20.7955 14.9764 20.8002 14.9712 20.8036 14.9653C20.8069 14.9593 20.8089 14.9527 20.8092 14.9459C20.8096 14.9392 20.8084 14.9324 20.8056 14.9262C20.67 14.5966 20.4805 14.3055 20.2373 14.0526C19.9639 13.768 19.8745 13.4514 20.1962 13.1801C21.4171 12.1524 23.3523 12.1884 24.6061 13.1277C24.9042 13.3517 24.9093 13.6919 24.677 13.9643C24.415 14.2715 24.1776 14.4966 24.0635 14.9005C24.0539 14.9354 24.0669 14.955 24.1026 14.9591ZM33.2626 23.1099C31.7015 19.4769 28.6101 16.9498 24.7439 16.0063C24.3112 15.9005 24.192 16.3886 24.6051 16.5921C28.1703 18.3495 31.573 21.5046 31.9995 25.6987C32.0489 26.1807 32.1629 26.488 32.6809 26.5106C33.4065 26.5425 34.1002 26.303 33.9676 25.4295C33.8614 24.7286 33.6264 23.9554 33.2626 23.1099Z" fill="#F8F8F8"/>
<path d="M33.2626 23.1099C33.6264 23.9554 33.8614 24.7286 33.9676 25.4295C34.1002 26.3031 33.4065 26.5425 32.6809 26.5107C32.1629 26.488 32.0489 26.1808 31.9995 25.6988C31.573 21.5046 28.1703 18.3496 24.6051 16.5922C24.192 16.3887 24.3112 15.9005 24.7439 16.0064C28.6101 16.9498 31.7015 19.477 33.2626 23.1099Z" fill="#FF9E0C"/>
<path d="M9.139 36.1969C7.01471 32.8589 11.7638 29.6278 14.0905 32.9699C14.8182 34.0141 15.5345 34.9287 16.517 35.6625C17.5642 36.4436 18.7975 37.3038 20.2404 37.6799C22.8919 38.3716 25.6226 37.83 27.7849 36.1301C27.9582 35.9945 28.1329 35.8609 28.309 35.7293C29.273 35.0113 30.0777 34.1525 30.7231 33.1528C31.0307 32.6767 31.2551 32.3694 31.3963 32.231C32.3736 31.268 33.8135 31.12 34.9912 31.7993C36.0898 32.4334 36.7003 33.8918 36.317 35.1507C36.2313 35.4309 36.0529 35.7872 35.7815 36.2195C29.5772 46.0825 15.3639 45.9767 9.139 36.1969Z" fill="#F8F8F8"/>
<path d="M70.3647 41.82C69.538 41.82 68.8847 41.5933 68.4047 41.14C67.9514 40.66 67.7247 39.98 67.7247 39.1V16.02C67.7247 15.14 67.9514 14.4733 68.4047 14.02C68.8847 13.54 69.5647 13.3 70.4447 13.3H84.4047C85.098 13.3 85.618 13.4733 85.9647 13.82C86.3114 14.1667 86.4847 14.66 86.4847 15.3C86.4847 15.9667 86.3114 16.4867 85.9647 16.86C85.618 17.2067 85.098 17.38 84.4047 17.38H72.8447V25.34H83.5647C84.2314 25.34 84.738 25.5133 85.0847 25.86C85.458 26.2067 85.6447 26.7 85.6447 27.34C85.6447 28.0067 85.458 28.5267 85.0847 28.9C84.738 29.2467 84.2314 29.42 83.5647 29.42H72.8447V39.1C72.8447 40.9133 72.018 41.82 70.3647 41.82ZM97.9225 41.9C95.8958 41.9 94.1358 41.4867 92.6425 40.66C91.1492 39.8333 89.9892 38.66 89.1625 37.14C88.3358 35.5933 87.9225 33.78 87.9225 31.7C87.9225 30.1267 88.1492 28.7267 88.6025 27.5C89.0825 26.2467 89.7625 25.18 90.6425 24.3C91.5225 23.3933 92.5758 22.7133 93.8025 22.26C95.0292 21.78 96.4025 21.54 97.9225 21.54C99.9492 21.54 101.709 21.9533 103.203 22.78C104.696 23.6067 105.856 24.78 106.683 26.3C107.509 27.82 107.923 29.62 107.923 31.7C107.923 33.2733 107.683 34.6867 107.203 35.94C106.749 37.1933 106.083 38.2733 105.203 39.18C104.323 40.06 103.269 40.74 102.043 41.22C100.816 41.6733 99.4425 41.9 97.9225 41.9ZM97.9225 38.1C98.9092 38.1 99.7758 37.86 100.523 37.38C101.269 36.9 101.843 36.1933 102.243 35.26C102.669 34.3 102.883 33.1133 102.883 31.7C102.883 29.5667 102.429 27.98 101.523 26.94C100.616 25.8733 99.4158 25.34 97.9225 25.34C96.9358 25.34 96.0692 25.58 95.3225 26.06C94.5758 26.5133 93.9892 27.22 93.5625 28.18C93.1625 29.1133 92.9625 30.2867 92.9625 31.7C92.9625 33.8067 93.4158 35.4067 94.3225 36.5C95.2292 37.5667 96.4292 38.1 97.9225 38.1ZM120.969 41.9C118.943 41.9 117.183 41.4867 115.689 40.66C114.196 39.8333 113.036 38.66 112.209 37.14C111.383 35.5933 110.969 33.78 110.969 31.7C110.969 30.1267 111.196 28.7267 111.649 27.5C112.129 26.2467 112.809 25.18 113.689 24.3C114.569 23.3933 115.623 22.7133 116.849 22.26C118.076 21.78 119.449 21.54 120.969 21.54C122.996 21.54 124.756 21.9533 126.249 22.78C127.743 23.6067 128.903 24.78 129.729 26.3C130.556 27.82 130.969 29.62 130.969 31.7C130.969 33.2733 130.729 34.6867 130.249 35.94C129.796 37.1933 129.129 38.2733 128.249 39.18C127.369 40.06 126.316 40.74 125.089 41.22C123.863 41.6733 122.489 41.9 120.969 41.9ZM120.969 38.1C121.956 38.1 122.823 37.86 123.569 37.38C124.316 36.9 124.889 36.1933 125.289 35.26C125.716 34.3 125.929 33.1133 125.929 31.7C125.929 29.5667 125.476 27.98 124.569 26.94C123.663 25.8733 122.463 25.34 120.969 25.34C119.983 25.34 119.116 25.58 118.369 26.06C117.623 26.5133 117.036 27.22 116.609 28.18C116.209 29.1133 116.009 30.2867 116.009 31.7C116.009 33.8067 116.463 35.4067 117.369 36.5C118.276 37.5667 119.476 38.1 120.969 38.1Z" fill="#F03328"/>
<path d="M142.616 41.9C140.91 41.9 139.403 41.4867 138.096 40.66C136.816 39.8333 135.816 38.66 135.096 37.14C134.376 35.5933 134.016 33.78 134.016 31.7C134.016 29.5933 134.376 27.7933 135.096 26.3C135.816 24.78 136.816 23.6067 138.096 22.78C139.403 21.9533 140.91 21.54 142.616 21.54C144.243 21.54 145.656 21.94 146.856 22.74C148.083 23.54 148.91 24.5933 149.336 25.9H148.896V15.5C148.896 14.6733 149.11 14.0467 149.536 13.62C149.963 13.1933 150.576 12.98 151.376 12.98C152.176 12.98 152.79 13.1933 153.216 13.62C153.67 14.0467 153.896 14.6733 153.896 15.5V39.26C153.896 40.0867 153.683 40.7267 153.256 41.18C152.83 41.6067 152.216 41.82 151.416 41.82C150.616 41.82 150.003 41.6067 149.576 41.18C149.15 40.7267 148.936 40.0867 148.936 39.26V36.14L149.376 37.34C148.976 38.7267 148.163 39.8333 146.936 40.66C145.71 41.4867 144.27 41.9 142.616 41.9ZM144.016 38.1C145.003 38.1 145.87 37.86 146.616 37.38C147.363 36.9 147.936 36.1933 148.336 35.26C148.763 34.3 148.976 33.1133 148.976 31.7C148.976 29.5667 148.523 27.98 147.616 26.94C146.71 25.8733 145.51 25.34 144.016 25.34C143.03 25.34 142.163 25.58 141.416 26.06C140.67 26.5133 140.083 27.22 139.656 28.18C139.256 29.1133 139.056 30.2867 139.056 31.7C139.056 33.8067 139.51 35.4067 140.416 36.5C141.323 37.5667 142.523 38.1 144.016 38.1ZM161.561 41.78C160.761 41.78 160.147 41.54 159.721 41.06C159.294 40.58 159.081 39.9133 159.081 39.06V24.38C159.081 23.5 159.294 22.8333 159.721 22.38C160.147 21.9 160.761 21.66 161.561 21.66C162.361 21.66 162.974 21.9 163.401 22.38C163.854 22.8333 164.081 23.5 164.081 24.38V39.06C164.081 39.9133 163.867 40.58 163.441 41.06C163.014 41.54 162.387 41.78 161.561 41.78ZM161.561 17.94C160.627 17.94 159.894 17.7133 159.361 17.26C158.854 16.78 158.601 16.1267 158.601 15.3C158.601 14.4467 158.854 13.7933 159.361 13.34C159.894 12.8867 160.627 12.66 161.561 12.66C162.521 12.66 163.254 12.8867 163.761 13.34C164.267 13.7933 164.521 14.4467 164.521 15.3C164.521 16.1267 164.267 16.78 163.761 17.26C163.254 17.7133 162.521 17.94 161.561 17.94ZM178.916 41.9C176.703 41.9 174.796 41.4867 173.196 40.66C171.596 39.8333 170.356 38.66 169.476 37.14C168.623 35.62 168.196 33.82 168.196 31.74C168.196 29.7133 168.609 27.94 169.436 26.42C170.289 24.9 171.449 23.7133 172.916 22.86C174.409 21.98 176.103 21.54 177.996 21.54C179.383 21.54 180.623 21.7667 181.716 22.22C182.836 22.6733 183.783 23.3267 184.556 24.18C185.356 25.0333 185.956 26.0733 186.356 27.3C186.783 28.5 186.996 29.86 186.996 31.38C186.996 31.86 186.823 32.2333 186.476 32.5C186.156 32.74 185.689 32.86 185.076 32.86H172.236V29.98H183.476L182.836 30.58C182.836 29.3533 182.649 28.3267 182.276 27.5C181.929 26.6733 181.409 26.0467 180.716 25.62C180.049 25.1667 179.209 24.94 178.196 24.94C177.076 24.94 176.116 25.2067 175.316 25.74C174.543 26.2467 173.943 26.98 173.516 27.94C173.116 28.8733 172.916 29.9933 172.916 31.3V31.58C172.916 33.7667 173.423 35.4067 174.436 36.5C175.476 37.5667 176.996 38.1 178.996 38.1C179.689 38.1 180.463 38.02 181.316 37.86C182.196 37.6733 183.023 37.3667 183.796 36.94C184.356 36.62 184.849 36.4867 185.276 36.54C185.703 36.5667 186.036 36.7133 186.276 36.98C186.543 37.2467 186.703 37.58 186.756 37.98C186.809 38.3533 186.729 38.74 186.516 39.14C186.329 39.54 185.996 39.8867 185.516 40.18C184.583 40.7667 183.503 41.2067 182.276 41.5C181.076 41.7667 179.956 41.9 178.916 41.9Z" fill="#FF9E0C"/>
</svg>
