<svg width="229" height="131" viewBox="0 0 229 131" fill="none" xmlns="http://www.w3.org/2000/svg">
<rect x="0.5" y="42.6499" width="214" height="90" rx="45" transform="rotate(-11.4568 0.5 42.6499)" fill="url(#paint0_linear_4_336)"/>
<path d="M61.0467 96.1536C59.8719 96.3917 58.8782 96.2578 58.0655 95.7518C57.283 95.2002 56.7651 94.2991 56.5116 93.0486L49.8643 60.2494C49.6109 58.9988 49.741 57.9861 50.2546 57.2113C50.7985 56.3909 51.6958 55.854 52.9463 55.6006L72.785 51.5799C73.7703 51.3802 74.5592 51.4768 75.1517 51.8696C75.7442 52.2624 76.1326 52.9136 76.3169 53.8231C76.5089 54.7705 76.4124 55.5594 76.0273 56.1898C75.6345 56.7823 74.9454 57.1784 73.9601 57.3781L57.5321 60.7075L59.8246 72.0195L75.0589 68.932C76.0063 68.74 76.7763 68.8404 77.3688 69.2332C77.9992 69.6183 78.4065 70.2657 78.5909 71.1752C78.7829 72.1226 78.6674 72.9153 78.2443 73.5534C77.8515 74.1459 77.1814 74.5381 76.234 74.7301L60.9997 77.8176L63.7877 91.5739C64.3099 94.1509 63.3963 95.6775 61.0467 96.1536ZM100.232 88.3304C97.3523 88.9141 94.7321 88.8336 92.3718 88.0889C90.0115 87.3442 88.0251 86.0109 86.4126 84.0889C84.7923 82.129 83.6827 79.6711 83.0836 76.7152C82.6305 74.4793 82.5494 72.4245 82.8403 70.5507C83.1615 68.6313 83.8206 66.9196 84.8177 65.4156C85.8072 63.8736 87.1082 62.6039 88.7209 61.6064C90.3259 60.571 92.2084 59.8344 94.3685 59.3966C97.2486 58.8129 99.8688 58.8934 102.229 59.6381C104.589 60.3828 106.576 61.7161 108.188 63.6381C109.801 65.5601 110.907 67.999 111.506 70.9549C111.959 73.1908 112.025 75.2684 111.704 77.1878C111.42 79.0995 110.784 80.8263 109.795 82.3682C108.798 83.8722 107.497 85.142 105.892 86.1774C104.279 87.1749 102.392 87.8926 100.232 88.3304ZM99.138 82.9301C100.54 82.646 101.703 82.0553 102.625 81.1581C103.548 80.2609 104.16 79.0916 104.459 77.65C104.789 76.1628 104.75 74.415 104.343 72.4065C103.729 69.3748 102.628 67.2506 101.04 66.0337C99.4441 64.779 97.5851 64.3667 95.4629 64.7968C94.0608 65.081 92.8983 65.6716 91.9754 66.5688C91.0449 67.4281 90.4147 68.6013 90.0849 70.0885C89.7852 71.5301 89.8389 73.2551 90.246 75.2636C90.8527 78.2574 91.9578 80.4006 93.5612 81.6932C95.1568 82.9479 97.0158 83.3602 99.138 82.9301ZM132.985 81.6926C130.104 82.2763 127.484 82.1958 125.124 81.4511C122.764 80.7064 120.777 79.3731 119.165 77.4511C117.544 75.4912 116.435 73.0333 115.836 70.0774C115.383 67.8415 115.301 65.7867 115.592 63.9129C115.914 61.9935 116.573 60.2818 117.57 58.7778C118.559 57.2359 119.86 55.9662 121.473 54.9686C123.078 53.9332 124.961 53.1966 127.121 52.7588C130.001 52.1751 132.621 52.2556 134.981 53.0003C137.341 53.745 139.328 55.0783 140.94 57.0003C142.553 58.9223 143.659 61.3613 144.258 64.3172C144.711 66.5531 144.777 68.6307 144.456 70.55C144.173 72.4617 143.536 74.1885 142.547 75.7305C141.55 77.2345 140.249 78.5042 138.644 79.5396C137.031 80.5372 135.145 81.2548 132.985 81.6926ZM131.89 76.2924C133.292 76.0082 134.455 75.4175 135.378 74.5204C136.3 73.6232 136.912 72.4538 137.211 71.0122C137.541 69.5251 137.503 67.7773 137.096 65.7688C136.481 62.7371 135.38 60.6128 133.792 59.396C132.196 58.1413 130.337 57.7289 128.215 58.159C126.813 58.4432 125.65 59.0339 124.728 59.9311C123.797 60.7904 123.167 61.9636 122.837 63.4507C122.537 64.8923 122.591 66.6173 122.998 68.6258C123.605 71.6196 124.71 73.7628 126.313 75.0555C127.909 76.3102 129.768 76.7225 131.89 76.2924ZM163.747 75.4581C161.322 75.9496 159.062 75.7961 156.967 74.9977C154.909 74.1916 153.15 72.8121 151.689 70.8594C150.221 68.8688 149.187 66.3956 148.588 63.4396C147.981 60.4458 147.974 57.7842 148.567 55.4546C149.153 53.0872 150.236 51.1317 151.817 49.5883C153.436 48.0372 155.458 47.0158 157.883 46.5243C160.195 46.0558 162.319 46.2172 164.254 47.0084C166.228 47.792 167.706 49.0509 168.689 50.7849L168.063 50.9116L165.068 36.1321C164.83 34.9573 164.953 34.0053 165.436 33.2761C165.92 32.5468 166.73 32.067 167.867 31.8366C169.004 31.6062 169.937 31.7327 170.666 32.2162C171.433 32.692 171.936 33.5172 172.174 34.692L179.017 68.4576C179.255 69.6323 179.136 70.6033 178.66 71.3704C178.177 72.0996 177.367 72.5795 176.23 72.8099C175.093 73.0403 174.16 72.9138 173.431 72.4303C172.694 71.9089 172.206 71.0609 171.968 69.8861L171.07 65.4522L172.04 67.0308C171.871 69.1167 171.034 70.9236 169.529 72.4517C168.024 73.9797 166.097 74.9819 163.747 75.4581ZM164.642 69.6546C166.044 69.3705 167.207 68.7798 168.13 67.8826C169.053 66.9854 169.664 65.816 169.963 64.3745C170.293 62.8873 170.255 61.1395 169.848 59.131C169.233 56.0993 168.132 53.975 166.544 52.7582C164.948 51.5035 163.089 51.0912 160.967 51.5213C159.565 51.8055 158.403 52.3961 157.48 53.2933C156.549 54.1526 155.919 55.3258 155.589 56.813C155.289 58.2545 155.343 59.9796 155.75 61.9881C156.357 64.9819 157.462 67.1251 159.065 68.4177C160.661 69.6724 162.52 70.0847 164.642 69.6546Z" fill="white"/>
<defs>
<linearGradient id="paint0_linear_4_336" x1="1.3951" y1="38.2333" x2="185.17" y2="186.184" gradientUnits="userSpaceOnUse">
<stop stop-color="#FF9E0C"/>
<stop offset="1" stop-color="#D58000"/>
</linearGradient>
</defs>
</svg>
