<svg width="47" height="45" viewBox="0 0 47 45" fill="none" xmlns="http://www.w3.org/2000/svg">
<path fill-rule="evenodd" clip-rule="evenodd" d="M23.0657 0.584267C21.284 0.9699 19.8048 2.42508 19.3796 4.21038C19.0503 5.59346 19.4368 7.42467 20.2484 8.32688C20.9078 9.05994 21.7984 9.38315 23.6126 9.5479C24.4263 9.62179 25.2437 9.47705 25.5087 9.21213C25.6773 9.04361 25.6876 8.96021 25.632 8.21119C25.5986 7.76179 25.539 7.15195 25.4993 6.856C25.4149 6.22536 25.4994 5.84008 25.78 5.5766C26.1421 5.23652 26.9715 4.92721 27.946 4.76874C28.6651 4.6518 28.8972 4.58113 28.8958 4.47943C28.8923 4.20805 28.457 3.11707 28.1802 2.68588C27.5194 1.65669 26.3182 0.839233 25.0845 0.579245C24.3186 0.417818 23.829 0.418984 23.0657 0.584267ZM27.6381 5.19688C26.8166 5.36468 26.2645 5.60171 25.9909 5.90412C25.8369 6.07433 25.8282 6.16742 25.8992 6.8777C25.9425 7.3097 25.9787 8.03541 25.9798 8.49037C25.9815 9.20011 25.9563 9.34279 25.8023 9.49534C25.5794 9.71614 24.7026 9.95021 24.1011 9.94949C23.6694 9.94895 22.1893 9.75363 21.6573 9.62691L21.4057 9.567L21.6749 9.85712C22.9356 11.2161 25.2019 11.5201 26.8546 10.552C28.0276 9.86492 28.8979 8.31594 28.8979 6.91528C28.8979 6.45799 28.6973 5.58189 28.516 5.24657L28.4044 5.0403L27.6381 5.19688ZM20.4745 11.2171C19.1926 11.4298 17.9755 12.4036 17.3331 13.7309C16.886 14.6544 16.2417 16.8711 15.9688 18.425C15.6076 20.4803 15.7102 24.2231 16.1648 25.5831C16.5372 26.6971 17.1974 27.4232 18.1677 27.7861C18.43 27.8842 20.3297 28.2244 22.4882 28.5599C24.6071 28.8894 26.3451 29.1651 26.3506 29.1728C26.3559 29.1805 26.9566 30.7002 27.6853 32.5499C29.1909 36.3718 29.1393 36.2574 29.5407 36.6668C30.1498 37.2882 31.2724 37.5244 32.0448 37.1937C32.8943 36.83 33.4715 35.9555 33.473 35.0298C33.4738 34.5599 33.3005 34.0653 31.8074 30.2766C30.8908 27.9508 30.0574 25.9129 29.9554 25.7479C29.7255 25.3761 29.1549 24.9545 28.727 24.8403C28.5496 24.7929 27.2133 24.5705 25.7575 24.346C24.3017 24.1215 22.9733 23.9125 22.8056 23.8818L22.5006 23.8258L22.5653 22.5603C22.6008 21.8643 22.6784 20.9518 22.7377 20.5325L22.8455 19.7702L21.8116 18.7373C20.3864 17.3136 19.1456 15.5016 18.9823 14.6053C18.8486 13.8709 19.2774 13.078 20.0087 12.7078C21.0459 12.1826 21.9274 12.5306 22.6279 13.7419C23.1394 14.6261 23.6032 15.2524 23.7017 15.1915C23.8271 15.114 23.7968 13.9091 23.6561 13.3809C23.3882 12.3753 22.8274 11.6233 22.1361 11.343C21.7288 11.1778 21.03 11.1249 20.4745 11.2171ZM20.3455 12.9498C19.3341 13.3103 19.0817 14.2661 19.7001 15.3944C21.1658 18.0689 23.6259 20.2093 26.3645 21.1925C27.7602 21.6935 30.3029 22.0167 31.1146 21.7961C32.1187 21.5233 32.5859 20.5327 32.1308 19.6412C31.816 19.0242 31.4797 18.8953 29.9822 18.8164C28.0166 18.713 26.942 18.378 25.4997 17.4188C24.1802 16.5413 23.2943 15.5547 22.1236 13.6593C21.9398 13.3616 21.7274 13.1594 21.454 13.0216C20.9957 12.7906 20.8234 12.7794 20.3455 12.9498ZM0.589285 14.8677L0.540833 27.273L0.839621 27.5717C1.05317 27.7851 1.25218 27.8868 1.53679 27.9279C1.7559 27.9595 4.56146 27.9732 7.77141 27.9584C13.247 27.933 13.6231 27.9211 13.8578 27.7673C14.3687 27.4326 14.3622 27.5182 14.3622 21.1154C14.3622 14.7954 14.3635 14.8129 13.9031 14.4907C13.7149 14.3589 13.0765 14.3444 7.43476 14.3444H1.17538L0.589285 14.8677ZM36.7489 18.9534C35.9892 19.1923 35.3804 19.6979 35.0165 20.3923C34.8107 20.7847 34.7782 20.956 34.7766 21.6535C34.7752 22.3182 34.8115 22.535 34.9825 22.8817C35.4218 23.7733 36.3202 24.3945 37.2693 24.4631C37.7451 24.4975 37.816 24.4783 38.0534 24.251C38.9928 23.3515 38.9144 19.6501 37.9415 18.969C37.7041 18.8028 37.2467 18.7969 36.7489 18.9534ZM32.6664 20.6527C32.6664 20.9164 32.3341 21.477 32.0084 21.7629C31.5467 22.1681 30.9692 22.2731 29.6004 22.201C28.4923 22.1425 28.4492 22.1469 28.4492 22.3178C28.4492 22.598 28.8192 22.9546 29.1671 23.0098C29.4016 23.047 29.7288 22.9667 30.4598 22.6921C30.9982 22.49 31.4458 22.335 31.4547 22.3479C31.4636 22.3606 32.3903 25.0594 33.5139 28.3452C34.6376 31.6309 35.5902 34.3732 35.6309 34.4391C35.6867 34.5294 35.8112 34.4595 36.1373 34.1547C36.3749 33.9324 36.8191 33.6044 37.1242 33.4256C39.9245 31.7854 43.459 32.408 45.4701 34.8959C45.8825 35.406 46.0029 35.5036 46.1597 35.4547C46.5536 35.3319 46.5589 34.9694 46.176 34.3172C45.0031 32.3188 42.8412 31.0163 40.459 30.8729L39.5931 30.8208L39.2281 29.8693C38.4232 27.7708 37.0359 26.2489 34.9135 25.1356L34.2591 24.7924L33.5583 22.74C32.9016 20.8168 32.6664 20.2662 32.6664 20.6527ZM4.7821 29.0226C4.71938 29.0479 4.6083 29.184 4.53535 29.325C4.36873 29.647 4.34693 31.7397 4.507 32.0401C4.64069 32.291 4.8537 32.4538 5.05316 32.4573C5.25666 32.461 5.25253 32.5044 4.98694 33.1578C4.02956 35.5127 3.23872 38.5106 3.23692 39.7917L3.23621 40.2626H6.33319L6.33247 39.0743C6.33185 38.0781 6.36576 37.7772 6.5419 37.2134C6.9829 35.8017 7.79815 34.6117 8.85952 33.8301C9.90151 33.0628 10.8295 32.6953 12.0804 32.5544C15.2367 32.1988 18.239 34.2722 19.0861 37.3927C19.1997 37.8115 19.2433 38.2977 19.2408 39.1191L19.2374 40.2626H34.0723L33.9915 39.702C33.9469 39.3938 33.9346 38.8893 33.9639 38.581L34.0173 38.0205H22.0955L21.8057 37.3255C21.2328 35.9517 20.808 34.3465 20.6798 33.0714C20.6213 32.4893 20.627 32.4654 20.8781 32.2496L21.1366 32.0273V30.7264C21.1366 29.473 21.1286 29.417 20.9191 29.1941L20.7015 28.9626L12.7989 28.9697C8.45234 28.9736 4.84482 28.9974 4.7821 29.0226ZM11.4663 33.5872C10.3629 33.8544 9.21852 34.579 8.49155 35.471C6.38003 38.0618 6.98523 41.854 9.80048 43.6726C10.6979 44.2524 11.6138 44.5083 12.792 44.5083C13.619 44.5083 13.8953 44.4698 14.4968 44.2707C16.3028 43.6732 17.7136 42.142 18.184 40.2687C18.3875 39.4586 18.3229 38.0018 18.0486 37.2134C17.4266 35.4256 15.9174 34.0545 14.0518 33.5821C13.3962 33.4161 12.1627 33.4185 11.4663 33.5872ZM39.1267 33.5822C38.8552 33.6562 38.2989 33.8804 37.8904 34.0805C36.5263 34.7488 35.4016 36.1695 35.0473 37.672C34.8732 38.4099 34.8724 39.6305 35.0455 40.311C35.7683 43.1533 38.6496 45.0073 41.4595 44.4381C43.5464 44.0155 45.0331 42.702 45.729 40.6661C46.0337 39.7744 46.071 38.4996 45.8195 37.5721C45.344 35.8189 43.9791 34.349 42.265 33.7443C41.4219 33.4469 39.9101 33.3688 39.1267 33.5822ZM13.8495 37.1014C15.1648 37.8169 15.3534 39.6214 14.2171 40.6186C13.7596 41.02 13.385 41.1597 12.7725 41.1574C11.4625 41.1525 10.4869 40.068 10.6213 38.7663C10.7847 37.1841 12.436 36.3325 13.8495 37.1014ZM41.3315 36.9865C42.1506 37.3274 42.6777 38.2206 42.6036 39.1423C42.5535 39.7672 42.3953 40.1206 41.98 40.5356C41.5661 40.9494 41.059 41.1551 40.4472 41.1574C39.8347 41.1597 39.4602 41.02 39.0027 40.6186C37.6697 39.4488 38.2219 37.2829 39.964 36.8476C40.3048 36.7625 40.9511 36.8282 41.3315 36.9865Z" fill="#FF9E0C"/>
</svg>
